<svg id="Layer_1" data-name="Layer 1" xmlns="http://www.w3.org/2000/svg" viewBox="0 0 134.22 134.22"><defs><style>.cls-1{fill:#fcfcfc;}.cls-2{fill:#7532fa;}</style></defs><rect class="cls-1" width="134.22" height="134.22" rx="67.11"/><path class="cls-2" d="M7232.13,7156.46a2.94,2.94,0,0,1,3.16,3.17v50.52c0,22-16.19,32.39-36.16,32.39-17.41,0-34.94-9-35.42-28a3.22,3.22,0,0,1,.73-1.95,2.44,2.44,0,0,1,1.82-.73h17.41a4.6,4.6,0,0,1,2.68.73,7.64,7.64,0,0,1,1.58,2.68c1.22,6,5.12,9,11.81,9a11.55,11.55,0,0,0,5.6-1.22,9.6,9.6,0,0,0,3.78-3.17,17.15,17.15,0,0,0,2.07-4.74,28.92,28.92,0,0,0,.61-5.73v-27.63c0-1.44,0-2.89,0-4.36,0-.74,0-1.48.05-2.22h-39.05a3.09,3.09,0,0,1-3.05-3v-5.24a10.05,10.05,0,0,1,2.92-7.18,9.58,9.58,0,0,1,7.68-3.29Z" transform="translate(-7132.39 -7132.39)"/></svg>