<svg id="Layer_1" data-name="Layer 1" xmlns="http://www.w3.org/2000/svg" viewBox="0 0 41.51 49.91"><defs><style>.cls-1{fill:#7532fa;}</style></defs><path class="cls-1" d="M7218.42,7172.71a1.71,1.71,0,0,1,1.84,1.84v29.3c0,12.78-9.39,18.78-21,18.78-10.1,0-20.26-5.23-20.55-16.24a1.84,1.84,0,0,1,.43-1.13,1.43,1.43,0,0,1,1.06-.42h10.09a2.73,2.73,0,0,1,1.56.42,4.52,4.52,0,0,1,.91,1.55c.71,3.46,3,5.23,6.85,5.23a6.64,6.64,0,0,0,3.25-.71,5.6,5.6,0,0,0,2.19-1.83,10.27,10.27,0,0,0,1.2-2.76,16.65,16.65,0,0,0,.35-3.32v-16c0-.84,0-1.68,0-2.53,0-.43,0-.86,0-1.28H7184a1.8,1.8,0,0,1-1.77-1.77v-3a5.82,5.82,0,0,1,1.7-4.17,5.55,5.55,0,0,1,4.45-1.91Z" transform="translate(-7178.74 -7172.71)"/></svg>